Patient4_TMGait_0pt6_02_right_13_EMG.mot
version=1
nRows=27
nColumns=33
inDegrees=no
endheader
time	1LAddLong	2LGlutMax	3LGlutMed	4LIliopsoas	5LSemiMemb	6LBicFemLong	7LRecFem	8LVastMed	9LVastLat	10LGasMed	11LTibAnt	12lTibPost	13LPeroneusLong	14LSol	15LExtDigLong	16LFlexDigLong	17RAddLong	18RGlutMax	19RGlutMed	20RIliopsoas	21RSemiMemb	22RBicFemLong	23RRecFem	24RVastMed	25RVastLat	26RGasMed	27RTibAnt	28RTibPost	29RPeroneusLong	30RSol	31RExtDigLong	32RFlexDigLong
15.82	0.001984	-0.75241	-0.10361	-0.004883	-0.002289	-0.028534	-0.023193	0.020599	0.009918	-0.07843	0.16876	-0.012207	-0.12894	0.17761	0.27985	0.001831	0.010376	-0.63294	-1.0881	-0.066681	-0.015106	0.26199	0.064545	-0.14664	-0.19409	0.004883	0.01236	-0.049286	0.13321	-0.69076	-0.001678	-0.020599
15.821	-0.004883	-0.7724	-0.095215	-0.00061	-0.000305	-0.029449	0.055084	0.012207	0.003052	-0.064087	0.30609	-0.009308	-0.13107	0.17548	-0.028687	0.007477	0.011597	-0.6987	-0.86517	-0.072021	-0.023651	0.18738	0.077057	-0.095367	-0.10025	-0.002441	0.11368	-0.11612	-1.0117	-0.22079	0.011902	-0.028534
15.822	-0.005493	-0.77759	-0.10742	-0.010529	0.00412	-0.036163	0.12482	0.006104	0.000763	-0.040588	0.29724	-0.00351	-0.025024	0.20264	-0.27603	0.005951	0.003357	-0.71869	-1.0767	-0.098114	-0.019836	0.07782	0.031738	0.085144	0.027008	0.000916	0.13397	0.020447	-2.1281	0.15564	0.001984	-0.019989
15.823	-0.013275	-0.75165	-0.080566	-0.006104	0.008087	-0.035248	0.23239	0.009155	-0.005951	0.025024	-0.012512	0.001984	-0.033875	0.19577	-0.20203	-0.017853	-0.013428	-0.78934	-1.0793	-0.11505	-0.001678	-0.18753	0.050507	0.18906	-0.039978	0.006104	-0.077667	0.003357	0.3508	0.05722	0.004578	-0.020599
15.824	-0.003204	-0.76446	-0.088043	0.014191	0.001984	-0.021667	0.30899	0.009766	-0.020447	0.03418	-0.42297	-0.00473	-0.048065	0.20355	0.075073	-0.012817	0.005798	-0.86441	-0.85556	-0.20447	-0.040283	-0.44723	0.17075	0.12924	-0.061493	0.001984	0.12528	-0.013275	0.634	0.094757	0.002289	-0.029449
15.825	-0.010071	-0.72189	-0.054932	0.030365	0.006409	-0.03067	0.36102	0.010986	-0.030365	0.02533	-0.11002	0.003052	-0.092163	0.20966	0.41077	0.005035	0.025787	-0.91629	-0.10529	-0.20554	-0.050201	-0.64194	0.23178	0.005341	-0.09491	-0.002136	0.22644	-0.019226	0.83664	-0.028534	0.004425	-0.021515
15.826	-0.001526	-0.728	-0.076141	0.0177	0.009308	-0.000153	0.3746	0.013123	-0.024109	-0.002136	0.040741	-0.007782	-0.044098	0.19104	0.6694	0.007782	0.049133	-1.0658	0.10407	-0.005341	0.046692	-0.75043	0.26764	-0.14053	-0.10178	-0.009155	0.22156	-0.019379	1.9649	-0.13046	0.000458	-0.023499
15.827	-0.00351	-0.72983	-0.13626	-0.006866	0.00412	-0.014954	0.37949	0.002747	-0.019989	-0.026703	0.024109	-0.002441	0.026093	0.20996	-0.13001	0.013885	0.040741	-1.2553	-1.1163	0.1387	0.025787	-0.85098	0.29037	-0.15533	-0.082245	-0.007172	0.14832	-0.022583	0.94406	-0.0737	0.002289	-0.028229
15.828	-0.003357	-0.64712	-0.16968	-0.010681	0.005341	-0.014496	0.37018	0.003967	-0.032349	0.005951	-0.11032	-0.002441	-0.016785	0.13931	-0.32074	0.00946	0.031281	-1.2892	-1.2547	0.051422	-0.17273	-0.81741	0.36301	-0.16953	-0.087585	-0.013123	-0.13977	-0.023193	0.70252	-0.015106	0.002747	-0.024414
15.829	-0.000458	-0.53268	-0.14633	-0.013275	0.01358	0.011749	0.40009	0.005341	-0.02182	0.037384	0.036774	0.006561	-0.046234	0.19669	-0.54031	-0.009308	0.014343	-1.3849	-0.62637	-0.031586	-0.49011	-0.6427	0.33432	-0.008545	-0.091553	-0.026093	-0.19928	-0.020142	0.19318	0.059204	0.000916	-0.02655
15.83	-0.004272	-0.40634	-0.13214	-0.013428	0.000305	0.007172	0.41931	0.00351	-0.011597	0.034637	-0.035248	0.001526	-0.035095	0.21912	-0.47485	-0.018616	-0.014191	-1.3779	-0.48477	-0.15808	-0.38696	-0.59494	0.37567	0.06424	-0.12238	-0.062103	-0.03479	-0.018158	-1.2111	0.29694	0.001068	-0.027466
15.831	-0.005646	-0.27237	-0.12924	-0.002289	0.000916	-0.005341	0.44601	0.006409	-0.010223	0.022888	-0.036469	0.004272	-0.007935	0.121	-0.10422	-0.000763	-0.020447	-1.3484	0.027618	-0.027466	-0.016479	-0.80017	0.42786	0.065002	-0.095062	-0.081787	0.010834	-0.012054	-1.2325	0.29617	-0.001526	-0.022888
15.832	-0.011902	-0.06485	-0.13931	-0.002136	0.002594	-0.00946	0.46631	0.008392	0.004578	0.039673	0.11231	0.005951	-0.084076	0.073547	-0.16708	0.001068	-0.033722	-1.4302	-0.18631	0.36392	0.034637	-0.73288	0.61356	0.086975	-0.085449	-0.020447	0.006866	-0.014343	-0.45883	0.32242	-0.000763	-0.027161
15.833	-0.007019	0.18555	-0.14343	0.027466	0.011292	-0.005035	0.48813	0.000153	0.006714	0.041199	0.006409	0.003662	-0.05188	0.11734	-0.019989	-0.007477	0.003815	-1.416	-0.71991	0.39017	0.026093	-0.53207	0.68558	0.062408	-0.02594	0.00351	-0.15717	-0.001984	2.6175	0.049286	0.001221	-0.019836
15.834	-0.011444	0.40024	-0.1384	0.006409	0.010986	-0.029144	0.46371	0.002136	0.005188	0.023346	-0.30212	-0.000763	-0.010681	0.10223	-0.011292	-0.000916	0.025024	-1.3457	-0.65353	0.31174	0.11856	-0.30609	0.62286	-0.041809	0.35004	0.016327	0.13443	-0.019073	1.0432	-0.090027	0.004272	-0.023193
15.835	0.002594	0.63049	-0.11154	-0.009003	0.007935	-0.043488	0.37705	0	0.005646	0.035706	-0.22827	0.004578	-0.090332	0.019073	-0.30121	0.006409	0.010071	-1.3565	-0.25879	0.07782	0.15228	-0.14099	0.61859	-0.19058	0.39002	0.018463	0.27023	-0.001068	-0.28351	0.13962	0.001678	-0.015106
15.836	0.002289	0.78369	-0.12924	-0.026703	0.014954	-0.035095	0.31036	0.007782	0.003204	0.046539	-0.11246	0.003052	-0.11581	-0.072327	-0.23392	0.010529	0.037537	-1.3582	-0.61142	0.039978	-0.20187	-0.092468	0.7045	-0.31921	0.21698	0.021515	0.27527	-0.004425	-0.11749	-0.007935	0.002594	-0.013123
15.837	0.006256	0.923	-0.11841	-0.010834	0.019379	-0.042725	0.27298	0.017853	-0.001221	0.073547	-0.04715	0.003357	-0.096893	-0.11231	-0.093994	-0.00351	0.0383	-1.3971	-1.2521	0.075378	-0.62912	0.020294	0.45334	-0.20874	-0.011292	0.023651	0.28458	-0.017395	-0.72998	-0.14862	0.00061	-0.014496
15.838	0.000763	0.9967	-0.10666	0.020905	0.014343	-0.03067	0.28641	0.019836	0.011749	0.079041	-0.12222	0.009155	-0.10452	-0.084839	0.17563	-0.008392	-0.023651	-1.335	-1.1377	-0.007782	-0.63141	0.15091	0.005646	0.078735	-0.13184	0.039368	0.012207	-0.007324	-0.54352	-0.23254	-0.002899	-0.012207
15.839	-0.001678	1.0699	-0.066071	-0.012817	0.016327	-0.011902	0.36529	0.023041	-0.007782	0.096588	-0.15717	0.007477	-0.10529	0.019379	0.22812	-0.007172	-0.06073	-1.257	-0.71838	-0.047607	-0.20966	-0.083618	-0.26291	0.34134	-0.28244	0.044708	0.066376	-0.002136	-0.19089	-0.13641	-0.00061	-0.007019
15.84	-0.002594	1.1714	-0.042114	-0.003052	0.014648	-0.018158	0.27145	0.016785	-0.024414	0.09201	0.005188	0.006409	-0.09613	0.097198	0.37628	-0.020752	-0.12253	-1.0771	-0.63629	-0.10071	0.51178	-0.22919	-0.071259	0.51743	-0.49377	0.029602	0.271	-0.002594	-0.1593	-0.029755	0.001526	-0.014191
15.841	-0.011444	1.2097	-0.039978	-0.009766	0.011444	-0.018921	0.1062	0.018768	-0.021515	0.066223	0.028381	0.002899	-0.057526	0.057526	0.11902	-0.016937	-0.11734	-0.91629	-0.42343	-0.08667	0.59235	-0.15656	-0.029602	0.30533	-0.40329	0	0.30487	-0.005798	0.24399	-0.007172	0.000458	-0.02533
15.842	0.050812	1.2485	-0.057373	-0.019836	0.013733	-0.02182	0.168	0.019226	-0.013885	0.046692	-0.21515	0.006866	-0.024872	0.001526	0.23071	-0.020142	-0.068054	-0.87555	-0.072937	-0.028687	0.57373	-0.34821	0.001221	0.003052	-0.19577	-0.007324	-0.033112	-0.010834	-0.12482	-0.14374	0.002747	-0.022736
15.843	-0.066833	1.2828	-0.068207	-0.009003	0.017242	-0.02655	0.30594	0.012054	0.001221	0.02594	-0.29709	0.002747	-0.010376	0.05722	0.36743	-0.009918	-0.070801	-0.82153	-0.16159	-0.016632	0.21561	-0.57953	-0.14984	-0.069885	0.2887	-0.022278	-0.23529	-0.012512	-0.84274	-0.033417	0.00061	-0.018005
15.844	0.090637	1.4247	-0.062256	-0.014954	0.014801	-0.042419	0.29404	0.009003	0.006256	0.041351	-0.33249	0.011444	-0.042419	0.082397	0.092773	0.002594	-0.074921	-0.59738	-0.1767	0.016022	0.012665	-0.45593	-0.504	-0.14786	0.35919	-0.034943	-0.21835	-0.014343	-0.58182	-0.013123	0.001526	-0.02182
15.845	-0.028229	1.4844	-0.05188	-0.00351	0.011749	-0.017853	0.26932	0.001221	0.012817	0.051575	0.021667	0.001221	-0.079651	0.12299	0.10162	0.012665	-0.060577	-0.48935	-0.10696	0.001373	0.023346	-0.097351	-0.31876	0.027008	0.3273	-0.023041	-0.089722	-0.018311	-0.99747	-0.11551	0.002441	-0.016327
15.846	-0.00885	1.489	-0.047607	0.016022	0.010529	-0.040436	0.21698	0.000916	0.030212	0.025635	0.38788	0.008392	-0.097046	0.19821	-0.25528	0.023193	-0.038147	-0.38559	-0.13931	0.052032	0.022278	0.18234	-0.048828	0.11063	0.18143	0.00824	0.11566	-0.022278	-1.6608	-0.21393	0.001678	-0.008087
